<?xml version="1.0" encoding="UTF-8"?>
<svg version="1.1" xmlns="http://www.w3.org/2000/svg" width="200" height="200">
<path d="M0 0 C66 0 132 0 200 0 C200 66 200 132 200 200 C134 200 68 200 0 200 C0 134 0 68 0 0 Z " fill="#FEFCFE" transform="translate(0,0)"/>
<path d="M0 0 C6.20861141 -0.16564477 11.71168981 0.27242676 17.75 1.6875 C18.91897827 1.95651123 18.91897827 1.95651123 20.11157227 2.23095703 C32.32177632 5.15839578 43.5439073 10.02927153 54 17 C54.14062145 19.9927912 54.09503715 22.71613452 53.875 25.6875 C53.81860352 26.54384033 53.76220703 27.40018066 53.70410156 28.2824707 C50.7739496 67.44956418 31.03532264 104.20176037 4 132 C3.44521973 132.57524414 2.89043945 133.15048828 2.31884766 133.74316406 C-4.73924983 141.03711623 -11.83251723 147.94025472 -20 154 C-20.66 153.67 -21.32 153.34 -22 153 C-21.443125 152.04222656 -20.88625 151.08445313 -20.3125 150.09765625 C-3.71305803 121.27495552 6.93611835 92.52690545 6 59 C-2.06481755 59.48224736 -9.33954136 62.35819796 -16.875 65.0625 C-18.86830314 65.77174843 -20.86237985 66.47867167 -22.85769653 67.18223572 C-24.65273569 67.81607049 -26.44533362 68.45680636 -28.23779297 69.09790039 C-31 70 -31 70 -33 70 C-33.78469603 27.28034312 -33.78469603 27.28034312 -26.8125 18 C-24.27218156 15.57246526 -22.3961393 14.48962385 -18.875 14.25 C-14.56817841 15.08357837 -12.95091951 15.79761083 -10 19 C-9.79085467 21.84922624 -9.82334248 23.97821113 -10.1875 26.75 C-10.25775391 27.44738281 -10.32800781 28.14476563 -10.40039062 28.86328125 C-10.5765727 30.57812008 -10.78513351 32.28957762 -11 34 C-3.33276607 29.99970404 2.08299981 25.83400037 6 18 C6.50822161 12.82613735 6.88795386 8.45032464 4.125 3.9375 C3.42375 3.298125 2.7225 2.65875 2 2 C1.34 1.34 0.68 0.68 0 0 Z " fill="#FA0275" transform="translate(122,25)"/>
<path d="M0 0 C-0.40992188 0.556875 -0.81984375 1.11375 -1.2421875 1.6875 C-1.78101563 2.450625 -2.31984375 3.21375 -2.875 4 C-3.40867188 4.7425 -3.94234375 5.485 -4.4921875 6.25 C-16.56527711 28.2693137 -14.4802477 68.57846519 -9 92 C-0.47689751 90.21372104 7.47688073 87.46929119 15.5871582 84.33764648 C16.76797974 83.88627319 16.76797974 83.88627319 17.97265625 83.42578125 C18.67656494 83.15161377 19.38047363 82.87744629 20.10571289 82.5949707 C22 82 22 82 25 82 C26.07045952 106.2161731 22.35049799 129.91630844 15 153 C-6.02810128 144.18675167 -23.64225185 116.77794142 -35 98 C-35.56050049 97.09241943 -35.56050049 97.09241943 -36.13232422 96.16650391 C-50.27121829 73.12824623 -60 44.2328985 -60 17 C-41.26119202 6.55499362 -21.85689199 -1.4126537 0 0 Z " fill="#FA0275" transform="translate(82,25)"/>
<path d="M0 0 C1.1171875 3.71875 1.1171875 3.71875 0.0625 6.25 C-0.288125 6.8275 -0.63875 7.405 -1 8 C2.7763932 8.2981424 2.7763932 8.2981424 5 7 C5.66 6.01 6.32 5.02 7 4 C7.99 4.66 8.98 5.32 10 6 C3.36160959 12.86555967 -3.3650816 19.21998585 -11 25 C-11.66 24.67 -12.32 24.34 -13 24 C-12.39671875 22.9378125 -11.7934375 21.875625 -11.171875 20.78125 C-10.36447951 19.35422541 -9.55719372 17.92713874 -8.75 16.5 C-8.15638672 15.45585937 -8.15638672 15.45585937 -7.55078125 14.390625 C-4.8800597 9.66213439 -2.39351473 4.87486486 0 0 Z " fill="#EE0F77" transform="translate(113,154)"/>
<path d="M0 0 C8.01701946 -0.41467342 15.21930149 1.14060121 23 3 C23 3.33 23 3.66 23 4 C18.71 4 14.42 4 10 4 C9.95875 5.93875 9.9175 7.8775 9.875 9.875 C9.2451271 18.12633503 6.37595805 23.9991484 0.1875 29.5 C-0.534375 29.995 -1.25625 30.49 -2 31 C-2.33 31.66 -2.66 32.32 -3 33 C-5.375 34.1875 -5.375 34.1875 -8 35 C-8.99 34.67 -9.98 34.34 -11 34 C-10.34773438 33.6596875 -9.69546875 33.319375 -9.0234375 32.96875 C-2.14945049 29.15662741 2.46110395 25.07779211 6 18 C6.50822161 12.82613735 6.88795386 8.45032464 4.125 3.9375 C3.42375 3.298125 2.7225 2.65875 2 2 C1.34 1.34 0.68 0.68 0 0 Z " fill="#E61B78" transform="translate(122,25)"/>
<path d="M0 0 C0.33 0 0.66 0 1 0 C0.67 5.28 0.34 10.56 0 16 C1.32 16.33 2.64 16.66 4 17 C2.31287014 21.49901296 0.17938563 25.72613986 -2 30 C-2.33 30.66 -2.66 31.32 -3 32 C-3.66 32 -4.32 32 -5 32 C-5 31.34 -5 30.68 -5 30 C-5.928125 30.309375 -5.928125 30.309375 -6.875 30.625 C-7.57625 30.74875 -8.2775 30.8725 -9 31 C-9.66 30.34 -10.32 29.68 -11 29 C-10.505 27.515 -10.505 27.515 -10 26 C-8.68 26.99 -7.36 27.98 -6 29 C-5.814375 27.49953125 -5.814375 27.49953125 -5.625 25.96875 C-4.88085655 20.75974584 -3.3587684 15.77679343 -1.9375 10.71875 C-1.02957979 7.11733318 -0.45506318 3.6784274 0 0 Z M-2 17 C-1 19 -1 19 -1 19 Z " fill="#FDE4F5" transform="translate(103,149)"/>
<path d="M0 0 C-0.95545366 1.46022163 -1.91446678 2.91811468 -2.875 4.375 C-3.40867187 5.18710937 -3.94234375 5.99921875 -4.4921875 6.8359375 C-6 9 -6 9 -8 11 C-7.67 8.69 -7.34 6.38 -7 4 C-6.01 3.67 -5.02 3.34 -4 3 C-4 2.34 -4 1.68 -4 1 C-7.04274908 1.45189343 -10.08405053 1.9112775 -13.125 2.375 C-14.40890625 2.56449219 -14.40890625 2.56449219 -15.71875 2.7578125 C-20.34862177 3.47010047 -24.56426491 4.45016485 -29 6 C-32.375 6.125 -32.375 6.125 -35 6 C-31.16547185 3.4436479 -27.59084015 2.81042712 -23.125 1.875 C-22.2796167 1.69614258 -21.4342334 1.51728516 -20.56323242 1.33300781 C-13.61184764 -0.05107373 -7.09209291 -0.45837584 0 0 Z " fill="#DE297C" transform="translate(82,25)"/>
<path d="M0 0 C0.66 1.32 1.32 2.64 2 4 C2.66 4.33 3.32 4.66 4 5 C4 4.01 4 3.02 4 2 C4.99 2 5.98 2 7 2 C5.44533803 6.08332902 2.74912156 8.08208993 -0.625 10.75 C-1.62789063 11.54921875 -2.63078125 12.3484375 -3.6640625 13.171875 C-4.43492188 13.77515625 -5.20578125 14.3784375 -6 15 C-6.66 14.67 -7.32 14.34 -8 14 C-5.36 9.38 -2.72 4.76 0 0 Z " fill="#E12077" transform="translate(108,164)"/>
<path d="M0 0 C1.65 0.99 3.3 1.98 5 3 C4.63647042 14.64548199 3.69860117 25.64550828 1 37 C0.67 37 0.34 37 0 37 C0.66 27.76 1.32 18.52 2 9 C2.66 9 3.32 9 4 9 C4 7.35 4 5.7 4 4 C3.01 4 2.02 4 1 4 C0.67 2.68 0.34 1.36 0 0 Z " fill="#E0287C" transform="translate(171,39)"/>
<path d="M0 0 C0.609375 2.328125 0.609375 2.328125 1 5 C-1.11611635 8.32532569 -2.22730267 9.74243422 -6 11 C-4.79641403 7.57440916 -3.64107354 5.46741391 -1 3 C-7.7685324 2.89847201 -14.30324864 2.96973056 -21 4 C-20 2 -20 2 -16.6875 0.875 C-11.17531978 -0.41017135 -5.62450319 -0.1687351 0 0 Z " fill="#FEE1F8" transform="translate(82,23)"/>
<path d="M0 0 C0.96012826 2.54117779 1.1679763 3.61344366 0.06640625 6.1484375 C-4.57249437 13.01642023 -9.89475835 18.46711198 -18 21 C-18 20.01 -18 19.02 -18 18 C-14.70450534 16.27735506 -11.66881155 14.70554068 -8 14 C-7.67 12.68 -7.34 11.36 -7 10 C-6.34 10 -5.68 10 -5 10 C-4.67 9.01 -4.34 8.02 -4 7 C-3.67 6.34 -3.34 5.68 -3 5 C-2.34 5 -1.68 5 -1 5 C-0.67 3.35 -0.34 1.7 0 0 Z " fill="#FED5F3" transform="translate(128,39)"/>
<path d="M0 0 C0.33 0 0.66 0 1 0 C0.34144551 8.60929956 -0.54891611 17.17575928 -1.5625 25.75 C-1.70107422 26.9359375 -1.83964844 28.121875 -1.98242188 29.34375 C-2.31985417 32.2293779 -2.65907233 35.11478335 -3 38 C-3.33 38 -3.66 38 -4 38 C-4.02705308 35.58325776 -4.04686438 33.1668206 -4.0625 30.75 C-4.07087891 30.06808594 -4.07925781 29.38617188 -4.08789062 28.68359375 C-4.10451504 25.25896494 -3.87478064 22.29329181 -3 19 C-2.77711499 16.41343327 -2.58685615 13.84047222 -2.4375 11.25 C-2.39431641 10.55261719 -2.35113281 9.85523438 -2.30664062 9.13671875 C-2.20110404 7.42468078 -2.1001009 5.71236439 -2 4 C-1.34 4 -0.68 4 0 4 C0 2.68 0 1.36 0 0 Z " fill="#DF1872" transform="translate(73,36)"/>
<path d="M0 0 C0.66 0.33 1.32 0.66 2 1 C1.13375 1.30808594 0.2675 1.61617187 -0.625 1.93359375 C-4.42127466 3.62522077 -7.056551 5.03933785 -10 8 C-11.56134699 13.49422446 -10.67841876 19.41560856 -10 25 C-10.33 25 -10.66 25 -11 25 C-11.66 19.06 -12.32 13.12 -13 7 C-10.89625 5.824375 -8.7925 4.64875 -6.625 3.4375 C-5.6342749 2.87567017 -5.6342749 2.87567017 -4.62353516 2.30249023 C-3.11391613 1.47464214 -1.55715349 0.73454413 0 0 Z " fill="#DE1E73" transform="translate(35,35)"/>
<path d="M0 0 C3.3125 0.75 3.3125 0.75 6 2 C2.93688397 5.06311603 -0.87986581 5.84548091 -4.9375 7.1875 C-5.76185547 7.47302734 -6.58621094 7.75855469 -7.43554688 8.05273438 C-8.22896484 8.31763672 -9.02238281 8.58253906 -9.83984375 8.85546875 C-10.56550537 9.09934326 -11.29116699 9.34321777 -12.03881836 9.59448242 C-14 10 -14 10 -17 9 C-15.35 8.67 -13.7 8.34 -12 8 C-12 7.34 -12 6.68 -12 6 C-10.948125 5.7525 -9.89625 5.505 -8.8125 5.25 C-5.86148513 4.44410036 -4.8486269 3.86708703 -2.4375 1.75 C-1.633125 1.1725 -0.82875 0.595 0 0 Z " fill="#E31371" transform="translate(110,83)"/>
<path d="M0 0 C0.33 0 0.66 0 1 0 C1.99 5.61 2.98 11.22 4 17 C5.98 17 7.96 17 10 17 C9.67 17.66 9.34 18.32 9 19 C5.14354879 19.22036864 2.50776784 18.60355101 -1 17 C-0.835 15.865625 -0.67 14.73125 -0.5 13.5625 C0.07576084 9.02939706 0.09505266 4.56252762 0 0 Z " fill="#E8207A" transform="translate(69,100)"/>
<path d="M0 0 C0.33 0 0.66 0 1 0 C1.33 9.57 1.66 19.14 2 29 C2.66 29.33 3.32 29.66 4 30 C2.68 30.33 1.36 30.66 0 31 C0 20.77 0 10.54 0 0 Z " fill="#D41E71" transform="translate(89,64)"/>
<path d="M0 0 C0 6.27 0 12.54 0 19 C-0.33 19 -0.66 19 -1 19 C-1 13.39 -1 7.78 -1 2 C-1.99 2.33 -2.98 2.66 -4 3 C-5.99961564 3.03920815 -8.00049364 3.04443347 -10 3 C-10 2.34 -10 1.68 -10 1 C-7 0 -7 0 0 0 Z " fill="#EB0B73" transform="translate(106,109)"/>
<path d="M0 0 C0.391875 0.53625 0.78375 1.0725 1.1875 1.625 C3.04924722 4.14570252 3.04924722 4.14570252 5.625 6.8125 C8.27395801 10.36768049 8.73790067 12.63167776 9 17 C6.20546094 14.51596528 4.59290588 11.77067154 2.8125 8.5 C2.28269531 7.5409375 1.75289062 6.581875 1.20703125 5.59375 C0 3 0 3 0 0 Z " fill="#E31B75" transform="translate(38,104)"/>
<path d="M0 0 C0.33 0 0.66 0 1 0 C0.91240742 2.54320516 0.80546587 5.08316933 0.6875 7.625 C0.66494141 8.33785156 0.64238281 9.05070313 0.61914062 9.78515625 C0.37993032 14.52586948 -0.54264397 17.82315355 -3 22 C-4.24769691 18.4482228 -3.72044302 16.24015236 -2.625 12.6875 C-1.37583398 8.43235 -0.48914787 4.40233083 0 0 Z " fill="#FDCDEF" transform="translate(103,149)"/>
<path d="M0 0 C0 3.28967618 -0.74203144 5.20389507 -1.9375 8.25 C-3.56078104 12.56918948 -4.59244419 16.41499715 -5 21 C-5.33 21 -5.66 21 -6 21 C-6.39428144 13.77150687 -5.35287726 7.57288768 -1.3125 1.4375 C-0.879375 0.963125 -0.44625 0.48875 0 0 Z " fill="#DE2175" transform="translate(96,43)"/>
<path d="M0 0 C5.10472965 1.27618241 6.82539996 2.93254369 10 7 C13.11662908 8.80979141 13.11662908 8.80979141 16 10 C16 10.99 16 11.98 16 13 C12.06014326 11.32651716 8.98587525 8.67405957 5.75 5.9375 C5.19570312 5.47794922 4.64140625 5.01839844 4.0703125 4.54492188 C2.69175775 3.38876943 1.34298593 2.19728462 0 1 C0 0.67 0 0.34 0 0 Z " fill="#DD2578" transform="translate(81,165)"/>
<path d="M0 0 C1 3 1 3 -0.43359375 6.13671875 C-1.09135973 7.3260128 -1.75977815 8.50946371 -2.4375 9.6875 C-2.77587891 10.29400391 -3.11425781 10.90050781 -3.46289062 11.52539062 C-4.29957915 13.0220025 -5.14862831 14.51169189 -6 16 C-7.25541557 12.23375329 -6.37061958 10.62811066 -5 7 C-4.34 7 -3.68 7 -3 7 C-2.690625 6.030625 -2.38125 5.06125 -2.0625 4.0625 C-1 1 -1 1 0 0 Z " fill="#DF2076" transform="translate(160,104)"/>
<path d="M0 0 C6.18160604 0.53753096 11.326858 2.54582388 17 5 C17 5.33 17 5.66 17 6 C12.4888862 6.39803945 9.96921101 5.02510766 6 3 C2.7633037 2.29241674 2.7633037 2.29241674 0 2 C0 1.34 0 0.68 0 0 Z " fill="#E01A75" transform="translate(145,29)"/>
<path d="M0 0 C2.97 0 5.94 0 9 0 C8.04454634 1.46022163 7.08553322 2.91811468 6.125 4.375 C5.59132813 5.18710937 5.05765625 5.99921875 4.5078125 6.8359375 C3 9 3 9 1 11 C1.33 8.69 1.66 6.38 2 4 C2.99 3.67 3.98 3.34 5 3 C5 2.34 5 1.68 5 1 C3.35 1 1.7 1 0 1 C0 0.67 0 0.34 0 0 Z " fill="#D62272" transform="translate(73,25)"/>
<path d="M0 0 C2.31 0 4.62 0 7 0 C6.58578031 4.83256305 4.53586014 6.82679218 1 10 C0.67 9.34 0.34 8.68 0 8 C1.65 6.02 3.3 4.04 5 2 C3.35 1.67 1.7 1.34 0 1 C0 0.67 0 0.34 0 0 Z " fill="#FED6F2" transform="translate(76,24)"/>
<path d="M0 0 C1 4 1 4 -0.6875 7.125 C-3 10 -3 10 -7 12 C-4.69 8.04 -2.38 4.08 0 0 Z " fill="#FEDAF5" transform="translate(154,119)"/>
<path d="M0 0 C1.32 0.66 2.64 1.32 4 2 C1.69 4.31 -0.62 6.62 -3 9 C-3.33 7.68 -3.66 6.36 -4 5 C-3.01 4.34 -2.02 3.68 -1 3 C-0.67 2.01 -0.34 1.02 0 0 Z " fill="#E70C70" transform="translate(119,158)"/>
<path d="M0 0 C0.99 0.66 1.98 1.32 3 2 C1.02 4.64 -0.96 7.28 -3 10 C-3.66 8.68 -4.32 7.36 -5 6 C-4.01 6 -3.02 6 -2 6 C-1.7834375 5.071875 -1.7834375 5.071875 -1.5625 4.125 C-1 2 -1 2 0 0 Z " fill="#E91A76" transform="translate(141,134)"/>
<path d="M0 0 C9.41002278 -0.18451025 9.41002278 -0.18451025 14 1 C14 1.33 14 1.66 14 2 C12.23186888 2.24915939 10.46025018 2.47366632 8.6875 2.6875 C7.70136719 2.81511719 6.71523437 2.94273438 5.69921875 3.07421875 C3 3 3 3 1.14453125 1.51953125 C0.57798828 0.76736328 0.57798828 0.76736328 0 0 Z " fill="#D1307A" transform="translate(122,25)"/>
<path d="M0 0 C0.66 0.33 1.32 0.66 2 1 C1.39816251 3.02045442 0.72693904 5.02111039 0 7 C-0.99 7.495 -0.99 7.495 -2 8 C-2.20086443 4.28400809 -2.1519437 3.22791555 0 0 Z " fill="#E41776" transform="translate(149,122)"/>
</svg>
